<svg width="33" height="33" viewBox="0 0 33 33" fill="none" xmlns="http://www.w3.org/2000/svg">
<path d="M30.4209 19.2029C29.59 18.5993 28.9205 17.8004 28.4714 16.8768C27.8068 15.7691 27.4302 15.2153 26.8431 15.2153C26.256 15.2153 25.8794 15.747 25.2148 16.8768C24.5502 18.0066 23.5976 19.646 21.6703 19.646C19.7429 19.646 18.8125 18.0509 18.1257 16.8768C17.439 15.7027 17.0845 15.2153 16.5085 15.2153C15.9325 15.2153 15.5448 15.747 14.8802 16.8768C14.2156 18.0066 13.263 19.646 11.3357 19.646C9.40834 19.646 8.47789 18.0509 7.79114 16.8768C7.10438 15.7027 6.761 15.2153 6.16286 15.2153C5.56472 15.2153 5.19918 15.747 4.54566 16.8768C4.09652 17.8004 3.427 18.5993 2.59615 19.2029C2.43045 19.2843 2.24704 19.3229 2.0626 19.3154C1.87816 19.3078 1.69853 19.2543 1.54004 19.1596C1.38156 19.065 1.24924 18.9322 1.15512 18.7734C1.061 18.6146 1.00806 18.4348 1.00111 18.2503C0.992832 18.0653 1.03108 17.8812 1.11235 17.7148C1.19363 17.5483 1.31533 17.405 1.46633 17.2977C1.96112 16.8794 2.35813 16.3576 2.62938 15.7691C3.30506 14.595 4.23551 13 6.16286 13C8.09021 13 9.03173 14.595 9.70741 15.7691C10.3831 16.9433 10.7375 17.4307 11.3357 17.4307C11.9338 17.4307 12.2994 16.899 12.9529 15.7691C13.6064 14.6393 14.5701 13 16.5085 13C18.4469 13 19.3663 14.595 20.0531 15.7691C20.7398 16.9433 21.0832 17.4307 21.6813 17.4307C22.2795 17.4307 22.645 16.899 23.3096 15.7691C23.9742 14.6393 24.9268 13 26.8542 13C28.7815 13 29.712 14.595 30.3987 15.7691C30.6539 16.3523 31.0317 16.8737 31.5064 17.2977C31.6656 17.3998 31.796 17.541 31.8852 17.7077C31.9744 17.8745 32.0194 18.0613 32.0159 18.2503C32.009 18.4348 31.956 18.6146 31.8619 18.7734C31.7678 18.9322 31.6355 19.065 31.477 19.1596C31.3185 19.2543 31.1389 19.3078 30.9544 19.3154C30.77 19.3229 30.5866 19.2843 30.4209 19.2029Z" fill="white"/>
</svg>
